<svg width="100%" height="100%" viewBox="0 0 35 35" fill="none" xmlns="http://www.w3.org/2000/svg">
<path d="M11.7668 26.3032C11.7668 26.4383 11.6102 26.5464 11.4129 26.5464C11.1883 26.5666 11.0318 26.4585 11.0318 26.3032C11.0318 26.1681 11.1883 26.06 11.3857 26.06C11.5898 26.0397 11.7668 26.1478 11.7668 26.3032ZM9.65045 25.9992C9.60281 26.1343 9.73891 26.2897 9.94306 26.3302C10.12 26.3977 10.3241 26.3302 10.365 26.1951C10.4058 26.06 10.2765 25.9046 10.0723 25.8439C9.89542 25.7966 9.69808 25.8641 9.65045 25.9992ZM12.6582 25.8844C12.4608 25.9317 12.3247 26.06 12.3452 26.2154C12.3656 26.3505 12.5425 26.4383 12.7466 26.391C12.944 26.3437 13.0801 26.2154 13.0597 26.0803C13.0393 25.9519 12.8555 25.8641 12.6582 25.8844ZM17.1358 0C7.69746 0 0.477539 7.1128 0.477539 16.4817C0.477539 23.9728 5.22731 30.3831 12.0117 32.6392C12.8827 32.7945 13.189 32.2609 13.189 31.8218C13.189 31.4031 13.1685 29.0929 13.1685 27.6744C13.1685 27.6744 8.40517 28.6876 7.40486 25.6615C7.40486 25.6615 6.6291 23.6958 5.51311 23.1892C5.51311 23.1892 3.95481 22.1287 5.62199 22.149C5.62199 22.149 7.31639 22.2841 8.24865 23.8917C9.73891 26.4991 12.2363 25.7493 13.2094 25.3035C13.3659 24.2227 13.8082 23.4729 14.2981 23.0271C10.4942 22.6083 6.65632 22.0612 6.65632 15.5631C6.65632 13.7055 7.17349 12.7733 8.26226 11.5845C8.08534 11.1454 7.50693 9.33513 8.43919 6.99797C9.8614 6.55891 13.1345 8.82176 13.1345 8.82176C14.4955 8.4435 15.9585 8.24761 17.408 8.24761C18.8574 8.24761 20.3204 8.4435 21.6814 8.82176C21.6814 8.82176 24.9545 6.55215 26.3767 6.99797C27.309 9.34188 26.7306 11.1454 26.5536 11.5845C27.6424 12.7801 28.3093 13.7122 28.3093 15.5631C28.3093 22.0814 24.3012 22.6015 20.4973 23.0271C21.1234 23.5607 21.6542 24.574 21.6542 26.1613C21.6542 28.4377 21.6338 31.2544 21.6338 31.8083C21.6338 32.2474 21.9468 32.781 22.811 32.6257C29.6158 30.3831 34.2295 23.9728 34.2295 16.4817C34.2295 7.1128 26.5741 0 17.1358 0ZM7.09183 23.2973C7.00337 23.3648 7.02378 23.5202 7.13947 23.6485C7.24834 23.7566 7.40485 23.8039 7.49332 23.7161C7.58178 23.6485 7.56137 23.4932 7.44568 23.3648C7.33681 23.2568 7.1803 23.2095 7.09183 23.2973ZM6.35691 22.7502C6.30928 22.838 6.37733 22.946 6.51342 23.0136C6.6223 23.0811 6.7584 23.0609 6.80603 22.9663C6.85366 22.8785 6.78562 22.7704 6.64952 22.7029C6.51342 22.6623 6.40455 22.6826 6.35691 22.7502ZM8.56168 25.1549C8.4528 25.2427 8.49363 25.4453 8.65014 25.5737C8.80665 25.729 9.00399 25.7493 9.09245 25.6412C9.18092 25.5534 9.14009 25.3508 9.00399 25.2224C8.85428 25.0671 8.65014 25.0468 8.56168 25.1549ZM7.78593 24.1619C7.67705 24.2295 7.67705 24.4051 7.78593 24.5604C7.8948 24.7158 8.07853 24.7833 8.167 24.7158C8.27587 24.628 8.27587 24.4524 8.167 24.297C8.07173 24.1416 7.8948 24.0741 7.78593 24.1619Z" fill="white"/>
</svg>
