<svg width="100%" height="100%" viewBox="0 0 36 36" fill="none" xmlns="http://www.w3.org/2000/svg">
<path d="M6.92491 19.3421C5.91175 19.3421 5.0828 20.1711 5.0828 21.1842C5.0828 22.1974 5.91175 23.0263 6.92491 23.0263C7.93807 23.0263 8.76701 22.1974 8.76701 21.1842C8.76701 20.1711 7.93807 19.3421 6.92491 19.3421ZM6.92491 26.7105C5.91175 26.7105 5.0828 27.5395 5.0828 28.5526C5.0828 29.5658 5.91175 30.3947 6.92491 30.3947C7.93807 30.3947 8.76701 29.5658 8.76701 28.5526C8.76701 27.5395 7.93807 26.7105 6.92491 26.7105ZM6.92491 11.9737C5.91175 11.9737 5.0828 12.8026 5.0828 13.8158C5.0828 14.8289 5.91175 15.6579 6.92491 15.6579C7.93807 15.6579 8.76701 14.8289 8.76701 13.8158C8.76701 12.8026 7.93807 11.9737 6.92491 11.9737ZM1.39859 12.8947C0.882802 12.8947 0.477539 13.3 0.477539 13.8158C0.477539 14.3316 0.882802 14.7368 1.39859 14.7368C1.91438 14.7368 2.31964 14.3316 2.31964 13.8158C2.31964 13.3 1.91438 12.8947 1.39859 12.8947ZM6.92491 4.60526C5.91175 4.60526 5.0828 5.43421 5.0828 6.44737C5.0828 7.46053 5.91175 8.28947 6.92491 8.28947C7.93807 8.28947 8.76701 7.46053 8.76701 6.44737C8.76701 5.43421 7.93807 4.60526 6.92491 4.60526ZM34.5565 14.7368C35.0723 14.7368 35.4775 14.3316 35.4775 13.8158C35.4775 13.3 35.0723 12.8947 34.5565 12.8947C34.0407 12.8947 33.6354 13.3 33.6354 13.8158C33.6354 14.3316 34.0407 14.7368 34.5565 14.7368ZM21.6617 8.28947C22.6749 8.28947 23.5039 7.46053 23.5039 6.44737C23.5039 5.43421 22.6749 4.60526 21.6617 4.60526C20.6486 4.60526 19.8196 5.43421 19.8196 6.44737C19.8196 7.46053 20.6486 8.28947 21.6617 8.28947ZM21.6617 1.84211C22.1775 1.84211 22.5828 1.43684 22.5828 0.921053C22.5828 0.405263 22.1775 0 21.6617 0C21.146 0 20.7407 0.405263 20.7407 0.921053C20.7407 1.43684 21.146 1.84211 21.6617 1.84211ZM1.39859 20.2632C0.882802 20.2632 0.477539 20.6684 0.477539 21.1842C0.477539 21.7 0.882802 22.1053 1.39859 22.1053C1.91438 22.1053 2.31964 21.7 2.31964 21.1842C2.31964 20.6684 1.91438 20.2632 1.39859 20.2632ZM14.2933 33.1579C13.7775 33.1579 13.3723 33.5632 13.3723 34.0789C13.3723 34.5947 13.7775 35 14.2933 35C14.8091 35 15.2144 34.5947 15.2144 34.0789C15.2144 33.5632 14.8091 33.1579 14.2933 33.1579ZM14.2933 1.84211C14.8091 1.84211 15.2144 1.43684 15.2144 0.921053C15.2144 0.405263 14.8091 0 14.2933 0C13.7775 0 13.3723 0.405263 13.3723 0.921053C13.3723 1.43684 13.7775 1.84211 14.2933 1.84211ZM14.2933 8.28947C15.3065 8.28947 16.1354 7.46053 16.1354 6.44737C16.1354 5.43421 15.3065 4.60526 14.2933 4.60526C13.2802 4.60526 12.4512 5.43421 12.4512 6.44737C12.4512 7.46053 13.2802 8.28947 14.2933 8.28947ZM14.2933 18.4211C12.7644 18.4211 11.5302 19.6553 11.5302 21.1842C11.5302 22.7132 12.7644 23.9474 14.2933 23.9474C15.8223 23.9474 17.0565 22.7132 17.0565 21.1842C17.0565 19.6553 15.8223 18.4211 14.2933 18.4211ZM29.0302 19.3421C28.017 19.3421 27.1881 20.1711 27.1881 21.1842C27.1881 22.1974 28.017 23.0263 29.0302 23.0263C30.0433 23.0263 30.8723 22.1974 30.8723 21.1842C30.8723 20.1711 30.0433 19.3421 29.0302 19.3421ZM29.0302 26.7105C28.017 26.7105 27.1881 27.5395 27.1881 28.5526C27.1881 29.5658 28.017 30.3947 29.0302 30.3947C30.0433 30.3947 30.8723 29.5658 30.8723 28.5526C30.8723 27.5395 30.0433 26.7105 29.0302 26.7105ZM29.0302 11.9737C28.017 11.9737 27.1881 12.8026 27.1881 13.8158C27.1881 14.8289 28.017 15.6579 29.0302 15.6579C30.0433 15.6579 30.8723 14.8289 30.8723 13.8158C30.8723 12.8026 30.0433 11.9737 29.0302 11.9737ZM29.0302 4.60526C28.017 4.60526 27.1881 5.43421 27.1881 6.44737C27.1881 7.46053 28.017 8.28947 29.0302 8.28947C30.0433 8.28947 30.8723 7.46053 30.8723 6.44737C30.8723 5.43421 30.0433 4.60526 29.0302 4.60526ZM34.5565 20.2632C34.0407 20.2632 33.6354 20.6684 33.6354 21.1842C33.6354 21.7 34.0407 22.1053 34.5565 22.1053C35.0723 22.1053 35.4775 21.7 35.4775 21.1842C35.4775 20.6684 35.0723 20.2632 34.5565 20.2632ZM21.6617 26.7105C20.6486 26.7105 19.8196 27.5395 19.8196 28.5526C19.8196 29.5658 20.6486 30.3947 21.6617 30.3947C22.6749 30.3947 23.5039 29.5658 23.5039 28.5526C23.5039 27.5395 22.6749 26.7105 21.6617 26.7105ZM21.6617 33.1579C21.146 33.1579 20.7407 33.5632 20.7407 34.0789C20.7407 34.5947 21.146 35 21.6617 35C22.1775 35 22.5828 34.5947 22.5828 34.0789C22.5828 33.5632 22.1775 33.1579 21.6617 33.1579ZM14.2933 11.0526C12.7644 11.0526 11.5302 12.2868 11.5302 13.8158C11.5302 15.3447 12.7644 16.5789 14.2933 16.5789C15.8223 16.5789 17.0565 15.3447 17.0565 13.8158C17.0565 12.2868 15.8223 11.0526 14.2933 11.0526ZM14.2933 26.7105C13.2802 26.7105 12.4512 27.5395 12.4512 28.5526C12.4512 29.5658 13.2802 30.3947 14.2933 30.3947C15.3065 30.3947 16.1354 29.5658 16.1354 28.5526C16.1354 27.5395 15.3065 26.7105 14.2933 26.7105ZM21.6617 18.4211C20.1328 18.4211 18.8986 19.6553 18.8986 21.1842C18.8986 22.7132 20.1328 23.9474 21.6617 23.9474C23.1907 23.9474 24.4249 22.7132 24.4249 21.1842C24.4249 19.6553 23.1907 18.4211 21.6617 18.4211ZM21.6617 11.0526C20.1328 11.0526 18.8986 12.2868 18.8986 13.8158C18.8986 15.3447 20.1328 16.5789 21.6617 16.5789C23.1907 16.5789 24.4249 15.3447 24.4249 13.8158C24.4249 12.2868 23.1907 11.0526 21.6617 11.0526Z" fill="currentColor"/>

</svg>
